<?xml version="1.0" encoding="utf-8"?>
<!-- Generator: Adobe Illustrator 22.0.1, SVG Export Plug-In . SVG Version: 6.00 Build 0)  -->
<svg version="1.1" xmlns="http://www.w3.org/2000/svg" xmlns:xlink="http://www.w3.org/1999/xlink" x="0px" y="0px"
	 viewBox="0 0 812.6 427.9" style="enable-background:new 0 0 812.6 427.9;" xml:space="preserve">
<g id="bg" style="display:none;">
	<rect x="-242" y="-177.6" style="display:inline;fill:#84C447;" width="1366" height="768"/>
</g>
<g id="grass">
	<g>
		<g>
			<path style="fill:#53871D;" d="M62.5,37.6c-1.8,0-3.6,0.1-5.4,0.5c-1.8,0.4-3.5,1-5,1.9c-1.6,0.8-3,1.8-4.3,2.9
				c-0.3,0.3-0.6,0.6-0.9,0.9c0-0.1,0-0.1-0.1-0.2c-0.4-1.2-0.9-2.3-1.5-3.4c-1.1-2.2-2.5-4.3-4.1-6.2c-3.2-3.9-7.1-7.3-11.3-10.2
				l-9.3-6.4l6.2,8.9c1.2,1.7,2.3,3.6,3.1,5.5c0.8,1.9,1.5,3.9,1.8,5.9c0.4,2,0.5,4,0.4,6.1c0,1-0.2,2-0.3,3c0,0.1-0.1,0.3-0.1,0.4
				c-0.1-0.1-0.2-0.1-0.4-0.2c-1-0.6-2-1.1-3.1-1.6c-2.1-0.9-4.3-1.7-6.5-2.4c-1.1-0.4-2.2-0.6-3.3-1c-1.1-0.3-2.2-0.6-3.3-0.8
				c-1.1-0.2-2.2-0.5-3.4-0.7l-3.4-0.6L0,38.4l7.4,3.5c1.8,0.9,3.6,2,5.1,3.2c1.6,1.3,3,2.7,4.2,4.3c1.2,1.6,2.3,3.2,3.2,5
				c0.9,1.8,1.7,3.6,2.3,5.4c-0.3-1.9-0.8-3.8-1.5-5.7c-0.7-1.9-1.6-3.7-2.7-5.4c-1.1-1.7-2.4-3.4-4-4.9c-0.1-0.1-0.3-0.3-0.4-0.4
				l0.6,0.2c1.1,0.3,2.1,0.6,3.2,0.9c1,0.4,2.1,0.7,3.1,1c2.1,0.7,4,1.6,5.9,2.5c0.9,0.5,1.8,1,2.7,1.5c0.4,0.3,0.8,0.5,1.2,0.8
				c0.2,0.1,0.4,0.3,0.6,0.4c0.1,0.1,0.4,0.3,0.4,0.4l2.1,2.5l1.2-3c0.1-0.4,0.2-0.6,0.3-0.9c0.1-0.3,0.2-0.6,0.3-0.8
				c0.2-0.6,0.3-1.1,0.4-1.7c0.2-1.1,0.4-2.3,0.5-3.4c0.2-2.3,0-4.6-0.4-6.8c-0.2-1.4-0.6-2.9-1.1-4.3c1.1,1.1,2.1,2.2,3.1,3.3
				c1.5,1.8,2.8,3.6,3.9,5.6c0.5,1,1,2,1.4,3c0.2,0.5,0.4,1,0.5,1.5c0.1,0.3,0.1,0.5,0.2,0.8c0.1,0.2,0.1,0.5,0.1,0.7l0.8,4.9
				l2.7-4.2c0.1-0.2,0.4-0.5,0.6-0.8c0.2-0.3,0.4-0.6,0.7-0.8c0.5-0.5,1-1.1,1.5-1.6c1.1-1,2.3-1.9,3.6-2.6c1.3-0.7,2.7-1.3,4.2-1.8
				c0.4-0.1,0.9-0.2,1.3-0.3c-0.7,0.8-1.4,1.6-2.1,2.4c-1.3,1.7-2.5,3.5-3.4,5.4c-0.9,1.9-1.5,4-1.4,6c0.1,2.1,0.9,4,2.1,5.7
				c-0.9-1.8-1.4-3.8-1.2-5.7c0.1-1.9,0.9-3.8,1.9-5.5c1-1.7,2.3-3.3,3.7-4.8c1.4-1.5,2.9-2.9,4.5-4.3l2.2-1.9L62.5,37.6z"/>
		</g>
		<g>
			<path style="fill:#53871D;" d="M809.5,265.6c-1.8,0-3.6,0.1-5.4,0.5c-1.8,0.4-3.5,1-5,1.9c-1.6,0.8-3,1.8-4.3,2.9
				c-0.3,0.3-0.6,0.6-0.9,0.9c0-0.1,0-0.1-0.1-0.2c-0.4-1.2-0.9-2.3-1.5-3.4c-1.1-2.2-2.5-4.3-4.1-6.2c-3.2-3.9-7.1-7.3-11.3-10.2
				l-9.3-6.4l6.2,8.9c1.2,1.7,2.3,3.6,3.1,5.5c0.8,1.9,1.5,3.9,1.8,5.9c0.4,2,0.5,4,0.4,6.1c0,1-0.2,2-0.3,3c0,0.1-0.1,0.3-0.1,0.4
				c-0.1-0.1-0.2-0.1-0.4-0.2c-1-0.6-2-1.1-3.1-1.6c-2.1-0.9-4.3-1.7-6.5-2.4c-1.1-0.4-2.2-0.6-3.3-1c-1.1-0.3-2.2-0.6-3.3-0.8
				c-1.1-0.2-2.2-0.5-3.4-0.7l-3.4-0.6l-8.3-1.5l7.4,3.5c1.8,0.9,3.6,2,5.1,3.2c1.6,1.3,3,2.7,4.2,4.3c1.2,1.6,2.3,3.2,3.2,5
				c0.9,1.8,1.7,3.6,2.3,5.4c-0.3-1.9-0.8-3.8-1.5-5.7c-0.7-1.9-1.6-3.7-2.7-5.4c-1.1-1.7-2.4-3.4-4-4.9c-0.1-0.1-0.3-0.3-0.4-0.4
				l0.6,0.2c1.1,0.3,2.1,0.6,3.2,0.9c1,0.4,2.1,0.7,3.1,1c2.1,0.7,4,1.6,5.9,2.5c0.9,0.5,1.8,1,2.7,1.5c0.4,0.3,0.8,0.5,1.2,0.8
				c0.2,0.1,0.4,0.3,0.6,0.4c0.1,0.1,0.4,0.3,0.4,0.4l2.1,2.5l1.2-3c0.1-0.4,0.2-0.6,0.3-0.9c0.1-0.3,0.2-0.6,0.3-0.8
				c0.2-0.6,0.3-1.1,0.4-1.7c0.2-1.1,0.4-2.3,0.5-3.4c0.2-2.3,0-4.6-0.4-6.8c-0.2-1.4-0.6-2.9-1.1-4.3c1.1,1.1,2.1,2.2,3.1,3.3
				c1.5,1.8,2.8,3.6,3.9,5.6c0.5,1,1,2,1.4,3c0.2,0.5,0.4,1,0.5,1.5c0.1,0.3,0.1,0.5,0.2,0.8c0.1,0.2,0.1,0.5,0.1,0.7l0.8,4.9
				l2.7-4.2c0.1-0.2,0.4-0.5,0.6-0.8c0.2-0.3,0.4-0.6,0.7-0.8c0.5-0.5,1-1.1,1.5-1.6c1.1-1,2.3-1.9,3.6-2.6c1.3-0.7,2.7-1.3,4.2-1.8
				c0.4-0.1,0.9-0.2,1.3-0.3c-0.7,0.8-1.4,1.6-2.1,2.4c-1.3,1.7-2.5,3.5-3.4,5.4c-0.9,1.9-1.5,4-1.4,6c0.1,2.1,0.9,4,2.1,5.7
				c-0.9-1.8-1.4-3.8-1.2-5.7c0.1-1.9,0.9-3.8,1.9-5.5c1-1.7,2.3-3.3,3.7-4.8c1.4-1.5,2.9-2.9,4.5-4.3l2.2-1.9L809.5,265.6z"/>
		</g>
		<g>
			<path style="fill:#53871D;" d="M284.9,244.8c-1,0-2,0.1-2.9,0.3c-1,0.2-1.9,0.6-2.7,1c-0.9,0.4-1.6,1-2.4,1.6
				c-0.2,0.1-0.3,0.3-0.5,0.5c0,0,0-0.1,0-0.1c-0.2-0.6-0.5-1.2-0.8-1.8c-0.6-1.2-1.4-2.3-2.2-3.4c-1.7-2.1-3.8-3.9-6.2-5.5
				l-5.1-3.5l3.4,4.8c0.7,0.9,1.2,1.9,1.7,3c0.5,1,0.8,2.1,1,3.2c0.2,1.1,0.3,2.2,0.2,3.3c0,0.6-0.1,1.1-0.2,1.6c0,0.1,0,0.1,0,0.2
				c-0.1,0-0.1-0.1-0.2-0.1c-0.6-0.3-1.1-0.6-1.7-0.9c-1.1-0.5-2.3-0.9-3.5-1.3c-0.6-0.2-1.2-0.3-1.8-0.5c-0.6-0.2-1.2-0.3-1.8-0.4
				c-0.6-0.1-1.2-0.3-1.8-0.4l-1.8-0.3l-4.5-0.8l4,1.9c1,0.5,1.9,1.1,2.8,1.8c0.9,0.7,1.6,1.5,2.3,2.3c0.7,0.9,1.3,1.8,1.8,2.7
				c0.5,1,0.9,1.9,1.2,3c-0.1-1.1-0.4-2.1-0.8-3.1c-0.4-1-0.9-2-1.5-2.9c-0.6-0.9-1.3-1.8-2.2-2.6c-0.1-0.1-0.2-0.1-0.2-0.2l0.3,0.1
				c0.6,0.2,1.1,0.3,1.7,0.5c0.6,0.2,1.1,0.4,1.7,0.6c1.1,0.4,2.2,0.8,3.2,1.4c0.5,0.2,1,0.5,1.5,0.8c0.2,0.1,0.5,0.3,0.7,0.4
				c0.1,0.1,0.2,0.2,0.3,0.2c0.1,0.1,0.2,0.2,0.2,0.2l1.1,1.4l0.7-1.6c0.1-0.2,0.1-0.3,0.2-0.5c0.1-0.2,0.1-0.3,0.1-0.5
				c0.1-0.3,0.2-0.6,0.2-0.9c0.1-0.6,0.2-1.2,0.3-1.9c0.1-1.2,0-2.5-0.2-3.7c-0.1-0.8-0.3-1.6-0.6-2.3c0.6,0.6,1.2,1.2,1.7,1.8
				c0.8,1,1.5,2,2.1,3c0.3,0.5,0.6,1.1,0.8,1.6c0.1,0.3,0.2,0.6,0.3,0.8c0,0.1,0.1,0.3,0.1,0.4c0,0.1,0.1,0.3,0.1,0.4l0.4,2.6
				l1.5-2.3c0.1-0.1,0.2-0.3,0.3-0.4c0.1-0.2,0.2-0.3,0.4-0.4c0.3-0.3,0.5-0.6,0.8-0.8c0.6-0.5,1.2-1,1.9-1.4c0.7-0.4,1.5-0.7,2.3-1
				c0.2-0.1,0.5-0.1,0.7-0.2c-0.4,0.4-0.8,0.9-1.1,1.3c-0.7,0.9-1.4,1.9-1.9,2.9c-0.5,1-0.8,2.2-0.7,3.3c0,1.1,0.5,2.2,1.1,3.1
				c-0.5-1-0.7-2.1-0.6-3.1c0.1-1,0.5-2,1-3c0.6-0.9,1.3-1.8,2-2.6c0.8-0.8,1.6-1.6,2.5-2.3l1.2-1L284.9,244.8z"/>
		</g>
		<g>
			<path style="fill:#53871D;" d="M636.9,403.8c-1,0-2,0.1-2.9,0.3c-1,0.2-1.9,0.6-2.7,1c-0.9,0.4-1.6,1-2.4,1.6
				c-0.2,0.1-0.3,0.3-0.5,0.5c0,0,0-0.1,0-0.1c-0.2-0.6-0.5-1.2-0.8-1.8c-0.6-1.2-1.4-2.3-2.2-3.4c-1.7-2.1-3.8-3.9-6.2-5.5
				l-5.1-3.5l3.4,4.8c0.7,0.9,1.2,1.9,1.7,3c0.5,1,0.8,2.1,1,3.2c0.2,1.1,0.3,2.2,0.2,3.3c0,0.6-0.1,1.1-0.2,1.6c0,0.1,0,0.1,0,0.2
				c-0.1,0-0.1-0.1-0.2-0.1c-0.6-0.3-1.1-0.6-1.7-0.9c-1.1-0.5-2.3-0.9-3.5-1.3c-0.6-0.2-1.2-0.3-1.8-0.5c-0.6-0.2-1.2-0.3-1.8-0.4
				c-0.6-0.1-1.2-0.3-1.8-0.4l-1.8-0.3l-4.5-0.8l4,1.9c1,0.5,1.9,1.1,2.8,1.8c0.9,0.7,1.6,1.5,2.3,2.3c0.7,0.9,1.3,1.8,1.8,2.7
				c0.5,1,0.9,1.9,1.2,3c-0.1-1.1-0.4-2.1-0.8-3.1c-0.4-1-0.9-2-1.5-2.9c-0.6-0.9-1.3-1.8-2.2-2.6c-0.1-0.1-0.2-0.1-0.2-0.2l0.3,0.1
				c0.6,0.2,1.1,0.3,1.7,0.5c0.6,0.2,1.1,0.4,1.7,0.6c1.1,0.4,2.2,0.8,3.2,1.4c0.5,0.2,1,0.5,1.5,0.8c0.2,0.1,0.5,0.3,0.7,0.4
				c0.1,0.1,0.2,0.2,0.3,0.2c0.1,0.1,0.2,0.2,0.2,0.2l1.1,1.4l0.7-1.6c0.1-0.2,0.1-0.3,0.2-0.5c0.1-0.2,0.1-0.3,0.1-0.5
				c0.1-0.3,0.2-0.6,0.2-0.9c0.1-0.6,0.2-1.2,0.3-1.9c0.1-1.2,0-2.5-0.2-3.7c-0.1-0.8-0.3-1.6-0.6-2.3c0.6,0.6,1.2,1.2,1.7,1.8
				c0.8,1,1.5,2,2.1,3c0.3,0.5,0.6,1.1,0.8,1.6c0.1,0.3,0.2,0.6,0.3,0.8c0,0.1,0.1,0.3,0.1,0.4c0,0.1,0.1,0.3,0.1,0.4l0.4,2.6
				l1.5-2.3c0.1-0.1,0.2-0.3,0.3-0.4c0.1-0.2,0.2-0.3,0.4-0.4c0.3-0.3,0.5-0.6,0.8-0.8c0.6-0.5,1.2-1,1.9-1.4c0.7-0.4,1.5-0.7,2.3-1
				c0.2-0.1,0.5-0.1,0.7-0.2c-0.4,0.4-0.8,0.9-1.1,1.3c-0.7,0.9-1.4,1.9-1.9,2.9c-0.5,1-0.8,2.2-0.7,3.3c0,1.1,0.5,2.2,1.1,3.1
				c-0.5-1-0.7-2.1-0.6-3.1c0.1-1,0.5-2,1-3c0.6-0.9,1.3-1.8,2-2.6c0.8-0.8,1.6-1.6,2.5-2.3l1.2-1L636.9,403.8z"/>
		</g>
		<g>
			<path style="fill:#53871D;" d="M130.9,415.8c-1,0-2,0.1-2.9,0.3c-1,0.2-1.9,0.6-2.7,1c-0.9,0.4-1.6,1-2.4,1.6
				c-0.2,0.1-0.3,0.3-0.5,0.5c0,0,0-0.1,0-0.1c-0.2-0.6-0.5-1.2-0.8-1.8c-0.6-1.2-1.4-2.3-2.2-3.4c-1.7-2.1-3.8-3.9-6.2-5.5
				l-5.1-3.5l3.4,4.8c0.7,0.9,1.2,1.9,1.7,3c0.5,1,0.8,2.1,1,3.2c0.2,1.1,0.3,2.2,0.2,3.3c0,0.6-0.1,1.1-0.2,1.6c0,0.1,0,0.1,0,0.2
				c-0.1,0-0.1-0.1-0.2-0.1c-0.6-0.3-1.1-0.6-1.7-0.9c-1.1-0.5-2.3-0.9-3.5-1.3c-0.6-0.2-1.2-0.3-1.8-0.5c-0.6-0.2-1.2-0.3-1.8-0.4
				c-0.6-0.1-1.2-0.3-1.8-0.4l-1.8-0.3l-4.5-0.8l4,1.9c1,0.5,1.9,1.1,2.8,1.8c0.9,0.7,1.6,1.5,2.3,2.3c0.7,0.9,1.3,1.8,1.8,2.7
				c0.5,1,0.9,1.9,1.2,3c-0.1-1.1-0.4-2.1-0.8-3.1c-0.4-1-0.9-2-1.5-2.9c-0.6-0.9-1.3-1.8-2.2-2.6c-0.1-0.1-0.2-0.1-0.2-0.2l0.3,0.1
				c0.6,0.2,1.1,0.3,1.7,0.5c0.6,0.2,1.1,0.4,1.7,0.6c1.1,0.4,2.2,0.8,3.2,1.4c0.5,0.2,1,0.5,1.5,0.8c0.2,0.1,0.5,0.3,0.7,0.4
				c0.1,0.1,0.2,0.2,0.3,0.2c0.1,0.1,0.2,0.2,0.2,0.2l1.1,1.4l0.7-1.6c0.1-0.2,0.1-0.3,0.2-0.5c0.1-0.2,0.1-0.3,0.1-0.5
				c0.1-0.3,0.2-0.6,0.2-0.9c0.1-0.6,0.2-1.2,0.3-1.9c0.1-1.2,0-2.5-0.2-3.7c-0.1-0.8-0.3-1.6-0.6-2.3c0.6,0.6,1.2,1.2,1.7,1.8
				c0.8,1,1.5,2,2.1,3c0.3,0.5,0.6,1.1,0.8,1.6c0.1,0.3,0.2,0.6,0.3,0.8c0,0.1,0.1,0.3,0.1,0.4c0,0.1,0.1,0.3,0.1,0.4l0.4,2.6
				l1.5-2.3c0.1-0.1,0.2-0.3,0.3-0.4c0.1-0.2,0.2-0.3,0.4-0.4c0.3-0.3,0.5-0.6,0.8-0.8c0.6-0.5,1.2-1,1.9-1.4c0.7-0.4,1.5-0.7,2.3-1
				c0.2-0.1,0.5-0.1,0.7-0.2c-0.4,0.4-0.8,0.9-1.1,1.3c-0.7,0.9-1.4,1.9-1.9,2.9c-0.5,1-0.8,2.2-0.7,3.3c0,1.1,0.5,2.2,1.1,3.1
				c-0.5-1-0.7-2.1-0.6-3.1c0.1-1,0.5-2,1-3c0.6-0.9,1.3-1.8,2-2.6c0.8-0.8,1.6-1.6,2.5-2.3l1.2-1L130.9,415.8z"/>
		</g>
		<g>
			<path style="fill:#53871D;" d="M529.9,119.1c1.3,0,2.6,0.1,3.9,0.4c1.3,0.3,2.5,0.8,3.6,1.5c1.1,0.6,2.2,1.4,3.1,2.3
				c0.2,0.2,0.4,0.5,0.7,0.7c0,0,0-0.1,0-0.1c0.3-0.9,0.7-1.8,1.1-2.7c0.8-1.8,1.8-3.4,2.9-5c2.3-3.1,5.1-5.8,8.2-8.1l6.7-5.1
				l-4.5,7.1c-0.9,1.4-1.7,2.8-2.3,4.4c-0.6,1.5-1.1,3.1-1.3,4.7c-0.3,1.6-0.4,3.2-0.3,4.9c0,0.8,0.1,1.6,0.2,2.4
				c0,0.1,0,0.2,0.1,0.3c0.1-0.1,0.2-0.1,0.3-0.2c0.7-0.5,1.5-0.9,2.2-1.3c1.5-0.8,3.1-1.4,4.7-1.9c0.8-0.3,1.6-0.5,2.4-0.8
				c0.8-0.2,1.6-0.4,2.4-0.7c0.8-0.2,1.6-0.4,2.4-0.5l2.4-0.5l6-1.2l-5.4,2.8c-1.3,0.7-2.6,1.6-3.7,2.6c-1.1,1-2.1,2.2-3,3.4
				c-0.9,1.3-1.7,2.6-2.3,4c-0.7,1.4-1.2,2.8-1.6,4.3c0.2-1.5,0.6-3.1,1.1-4.6c0.5-1.5,1.2-2.9,2-4.3c0.8-1.4,1.8-2.7,2.9-3.9
				c0.1-0.1,0.2-0.2,0.3-0.3l-0.5,0.1c-0.8,0.2-1.5,0.5-2.3,0.7c-0.7,0.3-1.5,0.5-2.2,0.8c-1.5,0.6-2.9,1.2-4.3,2
				c-0.7,0.4-1.3,0.8-2,1.2c-0.3,0.2-0.6,0.4-0.9,0.7c-0.1,0.1-0.3,0.2-0.4,0.3c-0.1,0.1-0.3,0.3-0.3,0.3l-1.5,2l-0.9-2.4
				c-0.1-0.3-0.2-0.5-0.2-0.7c-0.1-0.2-0.1-0.5-0.2-0.7c-0.1-0.4-0.2-0.9-0.3-1.4c-0.2-0.9-0.3-1.8-0.3-2.7c-0.1-1.8,0-3.7,0.3-5.5
				c0.2-1.2,0.5-2.3,0.8-3.4c-0.8,0.8-1.6,1.7-2.2,2.7c-1.1,1.4-2,2.9-2.8,4.4c-0.4,0.8-0.7,1.6-1,2.4c-0.1,0.4-0.3,0.8-0.4,1.2
				c-0.1,0.2-0.1,0.4-0.2,0.6c0,0.2-0.1,0.4-0.1,0.5l-0.6,3.9l-1.9-3.4c-0.1-0.2-0.3-0.4-0.4-0.6c-0.2-0.2-0.3-0.4-0.5-0.7
				c-0.3-0.4-0.7-0.9-1.1-1.2c-0.8-0.8-1.6-1.5-2.6-2.1c-0.9-0.6-1.9-1.1-3-1.4c-0.3-0.1-0.6-0.2-1-0.3c0.5,0.6,1,1.3,1.5,1.9
				c1,1.3,1.8,2.8,2.5,4.3c0.7,1.5,1.1,3.2,1,4.8c-0.1,1.7-0.6,3.2-1.5,4.6c0.6-1.5,1-3,0.9-4.6c-0.1-1.5-0.7-3-1.4-4.4
				c-0.7-1.4-1.7-2.6-2.7-3.8c-1-1.2-2.1-2.3-3.3-3.4l-1.6-1.5L529.9,119.1z"/>
		</g>
		<g>
			<path style="fill:#53871D;" d="M667.9,16.1c1.3,0,2.6,0.1,3.9,0.4c1.3,0.3,2.5,0.8,3.6,1.5c1.1,0.6,2.2,1.4,3.1,2.3
				c0.2,0.2,0.4,0.5,0.7,0.7c0,0,0-0.1,0-0.1c0.3-0.9,0.7-1.8,1.1-2.7c0.8-1.8,1.8-3.4,2.9-5c2.3-3.1,5.1-5.8,8.2-8.1l6.7-5.1
				l-4.5,7.1c-0.9,1.4-1.7,2.8-2.3,4.4c-0.6,1.5-1.1,3.1-1.3,4.7c-0.3,1.6-0.4,3.2-0.3,4.9c0,0.8,0.1,1.6,0.2,2.4
				c0,0.1,0,0.2,0.1,0.3c0.1-0.1,0.2-0.1,0.3-0.2c0.7-0.5,1.5-0.9,2.2-1.3c1.5-0.8,3.1-1.4,4.7-1.9c0.8-0.3,1.6-0.5,2.4-0.8
				c0.8-0.2,1.6-0.4,2.4-0.7c0.8-0.2,1.6-0.4,2.4-0.5l2.4-0.5l6-1.2l-5.4,2.8c-1.3,0.7-2.6,1.6-3.7,2.6c-1.1,1-2.1,2.2-3,3.4
				c-0.9,1.3-1.7,2.6-2.3,4c-0.7,1.4-1.2,2.8-1.6,4.3c0.2-1.5,0.6-3.1,1.1-4.6c0.5-1.5,1.2-2.9,2-4.3c0.8-1.4,1.8-2.7,2.9-3.9
				c0.1-0.1,0.2-0.2,0.3-0.3l-0.5,0.1c-0.8,0.2-1.5,0.5-2.3,0.7c-0.7,0.3-1.5,0.5-2.2,0.8c-1.5,0.6-2.9,1.2-4.3,2
				c-0.7,0.4-1.3,0.8-2,1.2c-0.3,0.2-0.6,0.4-0.9,0.7c-0.1,0.1-0.3,0.2-0.4,0.3c-0.1,0.1-0.3,0.3-0.3,0.3l-1.5,2l-0.9-2.4
				c-0.1-0.3-0.2-0.5-0.2-0.7c-0.1-0.2-0.1-0.5-0.2-0.7c-0.1-0.4-0.2-0.9-0.3-1.4c-0.2-0.9-0.3-1.8-0.3-2.7c-0.1-1.8,0-3.7,0.3-5.5
				c0.2-1.2,0.5-2.3,0.8-3.4c-0.8,0.8-1.6,1.7-2.2,2.7c-1.1,1.4-2,2.9-2.8,4.4c-0.4,0.8-0.7,1.6-1,2.4c-0.1,0.4-0.3,0.8-0.4,1.2
				c-0.1,0.2-0.1,0.4-0.2,0.6c0,0.2-0.1,0.4-0.1,0.5l-0.6,3.9l-1.9-3.4c-0.1-0.2-0.3-0.4-0.4-0.6c-0.2-0.2-0.3-0.4-0.5-0.7
				c-0.3-0.4-0.7-0.9-1.1-1.2c-0.8-0.8-1.6-1.5-2.6-2.1c-0.9-0.6-1.9-1.1-3-1.4c-0.3-0.1-0.6-0.2-1-0.3c0.5,0.6,1,1.3,1.5,1.9
				c1,1.3,1.8,2.8,2.5,4.3c0.7,1.5,1.1,3.2,1,4.8c-0.1,1.7-0.6,3.2-1.5,4.6c0.6-1.5,1-3,0.9-4.6c-0.1-1.5-0.7-3-1.4-4.4
				c-0.7-1.4-1.7-2.6-2.7-3.8c-1-1.2-2.1-2.3-3.3-3.4l-1.6-1.5L667.9,16.1z"/>
		</g>
	</g>
</g>
<g id="post-corn-tl">
</g>
<g id="post-corn-bl_1_">
</g>
<g id="post-corn-br">
</g>
<g id="post-corn-tr">
</g>
<g id="bars-top" style="display:none;">
</g>
<g id="bars-right" style="display:none;">
</g>
<g id="bars-left" style="display:none;">
</g>
<g id="bars-bottom" style="display:none;">
</g>
<g id="post-mid-top">
</g>
<g id="post-mid-bottom">
</g>
<g id="post-mid-right">
</g>
<g id="post-mid-left">
</g>
</svg>
