<?xml version="1.0" encoding="utf-8"?>
<!-- Generator: Adobe Illustrator 22.0.1, SVG Export Plug-In . SVG Version: 6.00 Build 0)  -->
<svg version="1.1" xmlns="http://www.w3.org/2000/svg" xmlns:xlink="http://www.w3.org/1999/xlink" x="0px" y="0px"
	 viewBox="0 0 81.9 63" style="enable-background:new 0 0 81.9 63;" xml:space="preserve">
<g id="bg" style="display:none;">
	<rect x="-1261.6" y="-352.5" style="display:inline;fill:#84C447;" width="1366" height="768"/>
</g>
<g id="grass">
</g>
<g id="post-corn-tl">
</g>
<g id="post-corn-bl_1_">
</g>
<g id="post-corn-br">
</g>
<g id="post-corn-tr">
</g>
<g id="bars-top" style="display:none;">
</g>
<g id="bars-right" style="display:none;">
	<g style="display:inline;">
		<g>
			<g>
				<g>
					<polyline style="fill:#68452B;" points="54.4,-267 54.4,4 43.4,4 43.4,-262 					"/>
				</g>
				<g>
					<path d="M54.4-267l0.4,16.9l0.4,16.9l0.7,33.9l0,67.7V4v1.5h-1.5h-11h-1.5V4v-133l0-66.5c0.5-22.2,0.9-44.3,1.5-66.5
						c0.6,22.2,1,44.3,1.5,66.5l0,66.5V4l-1.5-1.5h11L52.9,4v-135.5l0-67.7l0.7-33.9l0.4-16.9L54.4-267z"/>
				</g>
			</g>
			<g>
				<g>
					<polyline style="fill:#68452B;" points="37.4,-259 37.4,10 26.4,10 26.4,-254 					"/>
				</g>
				<g>
					<path d="M37.4-259l0.4,16.8l0.4,16.8l0.7,33.6l0,67.2V10v1.5h-1.5h-11h-1.5V10v-132l0-66c0.5-22,0.9-44,1.5-66
						c0.6,22,1,44,1.5,66l0,66V10l-1.5-1.5h11L35.9,10v-134.5l0-67.2l0.7-33.6l0.4-16.8L37.4-259z"/>
				</g>
			</g>
		</g>
		<g>
			<g>
				<g>
					<polyline style="fill:#68452B;" points="54.4,329 54.4,58 43.4,58 43.4,324 					"/>
				</g>
				<g>
					<path d="M54.4,329l-0.4-16.9l-0.4-16.9l-0.7-33.9l0-67.7V58l1.5,1.5h-11l1.5-1.5v133l0,66.5c-0.5,22.2-0.9,44.3-1.5,66.5
						c-0.6-22.2-1-44.3-1.5-66.5l0-66.5V58v-1.5h1.5h11h1.5V58v135.5l0,67.7l-0.7,33.9l-0.4,16.9L54.4,329z"/>
				</g>
			</g>
			<g>
				<g>
					<polyline style="fill:#68452B;" points="37.4,321 37.4,52 26.4,52 26.4,316 					"/>
				</g>
				<g>
					<path d="M37.4,321l-0.4-16.8l-0.4-16.8l-0.7-33.6l0-67.2V52l1.5,1.5h-11l1.5-1.5v132l0,66c-0.5,22-0.9,44-1.5,66
						c-0.6-22-1-44-1.5-66l0-66V52v-1.5h1.5h11h1.5V52v134.5l0,67.2l-0.7,33.6l-0.4,16.8L37.4,321z"/>
				</g>
			</g>
		</g>
	</g>
</g>
<g id="bars-left" style="display:none;">
</g>
<g id="bars-bottom" style="display:none;">
</g>
<g id="post-mid-top">
</g>
<g id="post-mid-bottom">
</g>
<g id="post-mid-right">
	<g>
		<path style="fill:#68452B;" d="M7.9,19c-7.2,7.2-7.2,18.8,0,26c1.3,1.3,2.7,2.3,4.2,3.1c1.7,1.1,14.4,9.1,32.3,11.7
			c9.3,2,19.3-0.6,26.6-7.9c11.3-11.3,11.3-29.7,0-41c-6.2-6.2-14.4-9-22.5-8.4C26.8,3.7,12.9,15.1,11.9,15.9
			C10.5,16.8,9.1,17.8,7.9,19z"/>
		<path d="M50.4,63c-2.2,0-4.4-0.2-6.5-0.7C26,59.7,13.4,52,10.8,50.3c-1.7-1-3.3-2.1-4.7-3.5C-2,38.6-2,25.4,6.1,17.2
			c1.3-1.3,2.8-2.4,4.4-3.3C12.8,12,26.8,1.2,48.3,0.1c9-0.6,17.9,2.7,24.4,9.1c6,5.9,9.2,13.9,9.2,22.3c0,8.4-3.3,16.3-9.2,22.3
			C66.7,59.7,58.7,63,50.4,63z M50.4,5c-0.6,0-1.2,0-1.8,0.1c-20.9,1.1-34.5,12.3-35,12.8l-0.4,0.3c-1.3,0.7-2.5,1.6-3.5,2.6
			C3.4,27,3.4,37,9.6,43.2c1.1,1.1,2.3,2,3.6,2.7l0.2,0.1c1.4,0.9,13.8,8.8,31.2,11.3l0.2,0c8.8,1.9,17.9-0.8,24.3-7.2
			c10.3-10.3,10.3-27.1,0-37.5C64.1,7.8,57.4,5,50.4,5z"/>
	</g>
	<g>
		<g>
			<path style="fill:#68452B;" d="M50.4,60.5C27.9,59,11.9,48,11.9,48V16c0,0,15-13,38.5-13.5C52.9,5,50.9,61,50.4,60.5z"/>
		</g>
		<g>
			<g>
				<circle style="fill:#68452B;" cx="20.9" cy="32" r="18.4"/>
			</g>
			<g>
				<circle style="fill:#68452B;" cx="50.4" cy="31.5" r="29"/>
			</g>
			<g>
				<circle style="fill:#AF8953;" cx="50.4" cy="31.5" r="26.5"/>
			</g>
			<g>
				<path style="fill:#68452B;" d="M50.4,10.5c2.8-0.2,5.6,0.2,8.2,1.1c2.6,1,5.1,2.5,7.2,4.5c2.1,2,3.7,4.4,4.9,7
					c1.1,2.6,1.7,5.5,1.7,8.4c0,2.9-0.6,5.8-1.7,8.4c-1.1,2.6-2.8,5-4.9,7c-2.1,2-4.5,3.5-7.2,4.5c-2.7,0.9-5.5,1.4-8.2,1.1
					c5.5-0.4,10.7-2.9,14.3-6.7c3.6-3.8,5.7-9,5.7-14.3c0-5.2-2.1-10.5-5.7-14.3C61,13.3,55.9,10.9,50.4,10.5z"/>
			</g>
			<g>
				<path style="fill:#68452B;" d="M50.4,47c-4.1,0.4-8.4-1.1-11.5-4c-1.6-1.4-2.8-3.3-3.7-5.2c-0.9-2-1.3-4.1-1.3-6.3
					c0-2.2,0.5-4.3,1.3-6.3c0.9-2,2.1-3.8,3.7-5.2c3.1-2.9,7.4-4.4,11.5-4c-4.1,0.4-7.8,2.3-10.4,5.1c-2.6,2.8-4.1,6.6-4.1,10.4
					c0,3.8,1.5,7.6,4.1,10.4C42.6,44.7,46.3,46.6,50.4,47z"/>
			</g>
			<g>
				<path style="fill:#68452B;" d="M39.9,31.5c-0.1-1,0-2.1,0.2-3.1c0.2-1,0.6-2,1.2-3c0.6-0.9,1.3-1.8,2.1-2.5
					c0.8-0.7,1.8-1.3,2.8-1.8c1-0.5,2.1-0.8,3.2-0.9c1.1-0.1,2.2-0.1,3.3,0.1c1.1,0.2,2.2,0.6,3.2,1.1c1,0.5,1.9,1.2,2.7,2
					c0.8,0.8,1.5,1.7,2,2.7c0.5,1,0.9,2.1,1.1,3.2c0.2,1.1,0.2,2.2,0.1,3.3c-0.1,1.1-0.4,2.2-0.9,3.2c-0.5,1-1.1,1.9-1.8,2.8
					c-0.7,0.8-1.6,1.5-2.5,2.1c-0.9,0.5-1.9,0.9-3,1.2c-1,0.2-2.1,0.3-3.1,0.2c4.1-0.4,7.7-3.2,9-6.8c1.4-3.6,0.4-7.8-2.3-10.4
					c-2.6-2.7-6.9-3.6-10.4-2.3C43,23.8,40.3,27.3,39.9,31.5z"/>
			</g>
		</g>
	</g>
</g>
<g id="post-mid-left">
</g>
</svg>
