<?xml version="1.0" encoding="utf-8"?>
<!-- Generator: Adobe Illustrator 22.0.1, SVG Export Plug-In . SVG Version: 6.00 Build 0)  -->
<svg version="1.1" xmlns="http://www.w3.org/2000/svg" xmlns:xlink="http://www.w3.org/1999/xlink" x="0px" y="0px"
	 viewBox="0 0 81.9 81.7" style="enable-background:new 0 0 81.9 81.7;" xml:space="preserve">
<g id="bg" style="display:none;">
	<rect x="-1261.5" y="-664.4" style="display:inline;fill:#84C447;" width="1366" height="768"/>
</g>
<g id="grass">
</g>
<g id="post-corn-tl">
</g>
<g id="post-corn-bl_1_">
</g>
<g id="post-corn-br">
	<g>
		<path style="fill:#68452B;" d="M3.9,27.3c0.1,0.1,0.2,0.4,0.4,0.8c0.1,0.2,0.2,0.4,0.3,0.6C7.8,35.6,21.1,63,29.8,70.1
			c0,0,0,0,0.1,0.1c11.3,11.3,29.7,11.3,41,0s11.3-29.7,0-41c-1.8-1.8-3.8-3.3-6-4.6C52.7,16.1,32.3,5.4,30.1,4.2
			c-7-4.1-16.2-3.1-22.2,2.9C2.4,12.6,1.1,20.6,3.9,27.3z"/>
		<path d="M50.4,81.1c-8.4,0-16.3-3.3-22.3-9.2c-9-7.4-21.9-34-25.7-42.1c-0.1-0.2-0.2-0.3-0.2-0.5l-0.5-1.1
			c-3.3-7.9-1.6-16.9,4.5-22.9c6.7-6.7,17-8,25.2-3.3c2.5,1.3,22.8,11.9,35,20.4c2.3,1.4,4.5,3,6.4,4.9c6,5.9,9.2,13.9,9.2,22.3
			c0,8.4-3.3,16.3-9.2,22.3C66.7,77.9,58.8,81.1,50.4,81.1z M6.2,26.3l0.5,1c0,0.1,0.1,0.2,0.1,0.3l0.1,0.1
			c7.6,16.1,18,35.2,24.5,40.5l0.3,0.3C42,78.7,58.8,78.7,69.1,68.4c10.3-10.3,10.3-27.1,0-37.5c-1.6-1.6-3.5-3-5.4-4.2l-0.2-0.1
			c-12.1-8.4-32.3-19-34.6-20.1l-0.1-0.1C22.6,2.8,14.7,3.8,9.6,8.9C5.1,13.5,3.7,20.3,6.2,26.3z"/>
	</g>
	<g>
		<g>
			<path style="fill:#68452B;" d="M29.9,4.1c0,0,31,16,41,25c0,0-29.7,50.1-41,41c-10-8-26-43-26-43L29.9,4.1z"/>
		</g>
		<g>
			<circle style="fill:#68452B;" cx="20.9" cy="20.1" r="18.4"/>
		</g>
		<g>
			<circle style="fill:#68452B;" cx="50.4" cy="49.6" r="29"/>
		</g>
		<g>
			<circle style="fill:#AF8953;" cx="50.4" cy="49.6" r="26.5"/>
		</g>
		<g>
			<path style="fill:#68452B;" d="M50.4,28.6c2.8-0.2,5.6,0.2,8.2,1.1c2.6,1,5.1,2.5,7.2,4.5c2.1,2,3.7,4.4,4.9,7
				c1.1,2.6,1.7,5.5,1.7,8.4c0,2.9-0.6,5.8-1.7,8.4c-1.1,2.6-2.8,5-4.9,7c-2.1,2-4.5,3.5-7.2,4.5c-2.7,0.9-5.5,1.4-8.2,1.1
				c5.5-0.4,10.7-2.9,14.3-6.7c3.6-3.8,5.7-9,5.7-14.3c0-5.2-2.1-10.5-5.7-14.3C61,31.5,55.9,29,50.4,28.6z"/>
		</g>
		<g>
			<path style="fill:#68452B;" d="M50.4,65.1c-4.1,0.4-8.4-1.1-11.5-4c-1.6-1.4-2.8-3.3-3.7-5.2c-0.9-2-1.3-4.1-1.3-6.3
				c0-2.2,0.5-4.3,1.3-6.3c0.9-2,2.1-3.8,3.7-5.2c3.1-2.9,7.4-4.4,11.5-4c-4.1,0.4-7.8,2.3-10.4,5.1c-2.6,2.8-4.1,6.6-4.1,10.4
				c0,3.8,1.5,7.6,4.1,10.4C42.6,62.9,46.3,64.7,50.4,65.1z"/>
		</g>
		<g>
			<path style="fill:#68452B;" d="M39.9,49.6c-0.1-1,0-2.1,0.2-3.1c0.2-1,0.6-2,1.2-3c0.6-0.9,1.3-1.8,2.1-2.5
				c0.8-0.7,1.8-1.3,2.8-1.8c1-0.5,2.1-0.8,3.2-0.9c1.1-0.1,2.2-0.1,3.3,0.1c1.1,0.2,2.2,0.6,3.2,1.1c1,0.5,1.9,1.2,2.7,2
				c0.8,0.8,1.5,1.7,2,2.7c0.5,1,0.9,2.1,1.1,3.2c0.2,1.1,0.2,2.2,0.1,3.3c-0.1,1.1-0.4,2.2-0.9,3.2c-0.5,1-1.1,1.9-1.8,2.8
				c-0.7,0.8-1.6,1.5-2.5,2.1c-0.9,0.5-1.9,0.9-3,1.2c-1,0.2-2.1,0.3-3.1,0.2c4.1-0.4,7.7-3.2,9-6.8c1.4-3.6,0.4-7.8-2.3-10.4
				c-2.6-2.7-6.9-3.6-10.4-2.3C43.1,42,40.3,45.5,39.9,49.6z"/>
		</g>
	</g>
</g>
<g id="post-corn-tr">
</g>
<g id="bars-top" style="display:none;">
</g>
<g id="bars-right" style="display:none;">
	<g style="display:inline;">
		<g>
			<g>
				<g>
					<polyline style="fill:#68452B;" points="54.5,17.1 54.5,-253.9 43.5,-253.9 43.5,12.1 					"/>
				</g>
				<g>
					<path d="M54.5,17.1L54.1,0.2l-0.4-16.9L53-50.6l0-67.7v-135.5l1.5,1.5h-11l1.5-1.5v133l0,66.5c-0.5,22.2-0.9,44.3-1.5,66.5
						c-0.6-22.2-1-44.3-1.5-66.5l0-66.5v-133v-1.5h1.5h11H56v1.5v135.5l0,67.7l-0.7,33.9L54.9,0.2L54.5,17.1z"/>
				</g>
			</g>
			<g>
				<g>
					<polyline style="fill:#68452B;" points="37.5,9.1 37.5,-259.9 26.5,-259.9 26.5,4.1 					"/>
				</g>
				<g>
					<path d="M37.5,9.1L37.1-7.7l-0.4-16.8L36-58.1l0-67.2v-134.5l1.5,1.5h-11l1.5-1.5v132l0,66c-0.5,22-0.9,44-1.5,66
						c-0.6-22-1-44-1.5-66l0-66v-132v-1.5h1.5h11H39v1.5v134.5l0,67.2l-0.7,33.6L37.9-7.7L37.5,9.1z"/>
				</g>
			</g>
		</g>
	</g>
</g>
<g id="bars-left" style="display:none;">
</g>
<g id="bars-bottom" style="display:none;">
	<g style="display:inline;">
		<g>
			<g>
				<polyline style="fill:#68452B;" points="15,48.1 -551,48.1 -551,37.1 19,37.1 				"/>
			</g>
			<g>
				<polygon points="15,48.1 -55.8,48.9 -126.5,49.6 -268,49.6 -551,49.6 -552.5,49.6 -552.5,48.1 -552.5,37.1 -552.5,35.6 
					-551,35.6 -266,35.6 -123.5,35.6 19,37.1 -123.5,38.6 -266,38.6 -551,38.6 -549.5,37.1 -549.5,48.1 -551,46.6 -268,46.6 
					-126.5,46.6 -55.8,47.3 				"/>
			</g>
		</g>
		<g>
			<g>
				<polyline style="fill:#68452B;" points="9,31.1 -557,31.1 -557,20.1 13,20.1 				"/>
			</g>
			<g>
				<polygon points="9,31.1 -61.8,31.9 -132.5,32.6 -274,32.6 -557,32.6 -558.5,32.6 -558.5,31.1 -558.5,20.1 -558.5,18.6 
					-557,18.6 -272,18.6 -129.5,18.6 13,20.1 -129.5,21.6 -272,21.6 -557,21.6 -555.5,20.1 -555.5,31.1 -557,29.6 -274,29.6 
					-132.5,29.6 -61.8,30.3 				"/>
			</g>
		</g>
	</g>
</g>
<g id="post-mid-top">
</g>
<g id="post-mid-bottom">
</g>
<g id="post-mid-right">
</g>
<g id="post-mid-left">
</g>
</svg>
