<?xml version="1.0" encoding="utf-8"?>
<!-- Generator: Adobe Illustrator 22.0.1, SVG Export Plug-In . SVG Version: 6.00 Build 0)  -->
<svg version="1.1" xmlns="http://www.w3.org/2000/svg" xmlns:xlink="http://www.w3.org/1999/xlink" x="0px" y="0px"
	 viewBox="0 0 82 63.1" style="enable-background:new 0 0 82 63.1;" xml:space="preserve">
<g id="bg" style="display:none;">
	<rect x="-22.2" y="-352.6" style="display:inline;fill:#84C447;" width="1366" height="768"/>
</g>
<g id="grass">
</g>
<g id="post-corn-tl">
</g>
<g id="post-corn-bl_1_">
</g>
<g id="post-corn-br">
</g>
<g id="post-corn-tr">
</g>
<g id="bars-top" style="display:none;">
</g>
<g id="bars-right" style="display:none;">
</g>
<g id="bars-left" style="display:none;">
	<g style="display:inline;">
		<g>
			<g>
				<g>
					<polyline style="fill:#68452B;" points="29.8,-267.1 29.8,3.9 40.8,3.9 40.8,-262.1 					"/>
				</g>
				<g>
					<path d="M29.8-267.1l0.4,16.9l0.4,16.9l0.7,33.9l0,67.7V3.9l-1.5-1.5h11l-1.5,1.5v-133l0-66.5c0.5-22.2,0.9-44.3,1.5-66.5
						c0.6,22.2,1,44.3,1.5,66.5l0,66.5v133v1.5h-1.5h-11h-1.5V3.9v-135.5l0-67.7l0.7-33.9l0.4-16.9L29.8-267.1z"/>
				</g>
			</g>
			<g>
				<g>
					<polyline style="fill:#68452B;" points="46.8,-259.1 46.8,9.9 57.8,9.9 57.8,-254.1 					"/>
				</g>
				<g>
					<path d="M46.8-259.1l0.4,16.8l0.4,16.8l0.7,33.6l0,67.2V9.9l-1.5-1.5h11l-1.5,1.5v-132l0-66c0.5-22,0.9-44,1.5-66
						c0.6,22,1,44,1.5,66l0,66v132v1.5h-1.5h-11h-1.5V9.9v-134.5l0-67.2l0.7-33.6l0.4-16.8L46.8-259.1z"/>
				</g>
			</g>
		</g>
		<g>
			<g>
				<g>
					<polyline style="fill:#68452B;" points="29.8,328.9 29.8,57.9 40.8,57.9 40.8,323.9 					"/>
				</g>
				<g>
					<path d="M29.8,328.9L29.3,312L29,295l-0.7-33.9l0-67.7V57.9v-1.5h1.5h11h1.5v1.5v133l0,66.5c-0.5,22.2-0.9,44.3-1.5,66.5
						c-0.6-22.2-1-44.3-1.5-66.5l0-66.5v-133l1.5,1.5h-11l1.5-1.5v135.5l0,67.7L30.6,295L30.2,312L29.8,328.9z"/>
				</g>
			</g>
			<g>
				<g>
					<polyline style="fill:#68452B;" points="46.8,320.9 46.8,51.9 57.8,51.9 57.8,315.9 					"/>
				</g>
				<g>
					<path d="M46.8,320.9l-0.4-16.8L46,287.3l-0.7-33.6l0-67.2V51.9v-1.5h1.5h11h1.5v1.5v132l0,66c-0.5,22-0.9,44-1.5,66
						c-0.6-22-1-44-1.5-66l0-66v-132l1.5,1.5h-11l1.5-1.5v134.5l0,67.2l-0.7,33.6l-0.4,16.8L46.8,320.9z"/>
				</g>
			</g>
		</g>
	</g>
</g>
<g id="bars-bottom" style="display:none;">
</g>
<g id="post-mid-top">
</g>
<g id="post-mid-bottom">
</g>
<g id="post-mid-right">
</g>
<g id="post-mid-left">
	<g>
		<path style="fill:#68452B;" d="M73.8,43.9c7.2-7.2,7.2-18.8,0-26c-1.3-1.3-2.7-2.3-4.2-3.1C67.9,13.6,55.2,5.6,37.3,3
			C28,1.1,18,3.7,10.8,10.9c-11.3,11.3-11.3,29.7,0,41c6.2,6.2,14.4,9,22.5,8.4c21.6-1.1,35.5-12.6,36.5-13.4
			C71.2,46.1,72.5,45.1,73.8,43.9z"/>
		<path d="M31.3,62.9c-8.3,0-16.3-3.3-22.3-9.2C-3.3,41.4-3.3,21.4,9,9.1c7.5-7.5,18.3-10.7,28.8-8.5C56,3.2,69,11.4,70.9,12.6
			c1.7,1,3.3,2.1,4.7,3.5c8.1,8.1,8.1,21.4,0,29.5c-1.3,1.3-2.8,2.4-4.4,3.3c-2.3,1.9-16.3,12.7-37.8,13.8
			C32.7,62.9,32,62.9,31.3,62.9z M31.2,4.9c-7,0-13.7,2.7-18.7,7.8C2.2,23,2.2,39.8,12.5,50.1c5.4,5.4,12.9,8.2,20.5,7.7
			C54,56.8,67.5,45.5,68.1,45l0.4-0.3c1.3-0.7,2.5-1.6,3.5-2.6c6.2-6.2,6.2-16.3,0-22.5c-1.1-1.1-2.3-2-3.6-2.7l-0.2-0.1
			C66.8,16,54.5,8.1,37,5.5l-0.2,0C34.9,5.1,33.1,4.9,31.2,4.9z"/>
	</g>
	<g>
		<g>
			<path style="fill:#68452B;" d="M31.3,2.4c22.5,1.5,38.5,12.5,38.5,12.5v32c0,0-15,13-38.5,13.5C28.8,57.9,30.8,1.9,31.3,2.4z"/>
		</g>
		<g>
			<g>
				<circle style="fill:#68452B;" cx="60.8" cy="30.9" r="18.4"/>
			</g>
			<g>
				<circle style="fill:#68452B;" cx="31.3" cy="31.4" r="29"/>
			</g>
			<g>
				<circle style="fill:#AF8953;" cx="31.3" cy="31.4" r="26.5"/>
			</g>
			<g>
				<path style="fill:#68452B;" d="M31.3,52.4c-2.8,0.2-5.6-0.2-8.2-1.1c-2.6-1-5.1-2.5-7.2-4.5c-2.1-2-3.7-4.4-4.9-7
					c-1.1-2.6-1.7-5.5-1.7-8.4c0-2.9,0.6-5.8,1.7-8.4c1.1-2.6,2.8-5,4.9-7c2.1-2,4.5-3.5,7.2-4.5c2.7-0.9,5.5-1.4,8.2-1.1
					c-5.5,0.4-10.7,2.9-14.3,6.7c-3.6,3.8-5.7,9-5.7,14.3c0,5.2,2.1,10.5,5.7,14.3C20.6,49.5,25.8,52,31.3,52.4z"/>
			</g>
			<g>
				<path style="fill:#68452B;" d="M31.3,15.9c4.1-0.4,8.4,1.1,11.5,4c1.6,1.4,2.8,3.3,3.7,5.2c0.9,2,1.3,4.1,1.3,6.3
					c0,2.2-0.5,4.3-1.3,6.3c-0.9,2-2.1,3.8-3.7,5.2c-3.1,2.9-7.4,4.4-11.5,4c4.1-0.4,7.8-2.3,10.4-5.1c2.6-2.8,4.1-6.6,4.1-10.4
					c0-3.8-1.5-7.6-4.1-10.4C39.1,18.1,35.3,16.3,31.3,15.9z"/>
			</g>
			<g>
				<path style="fill:#68452B;" d="M41.8,31.4c0.1,1,0,2.1-0.2,3.1c-0.2,1-0.6,2-1.2,3c-0.6,0.9-1.3,1.8-2.1,2.5
					c-0.8,0.7-1.8,1.3-2.8,1.8c-1,0.5-2.1,0.8-3.2,0.9c-1.1,0.1-2.2,0.1-3.3-0.1c-1.1-0.2-2.2-0.6-3.2-1.1c-1-0.5-1.9-1.2-2.7-2
					c-0.8-0.8-1.5-1.7-2-2.7c-0.5-1-0.9-2.1-1.1-3.2c-0.2-1.1-0.2-2.2-0.1-3.3c0.1-1.1,0.4-2.2,0.9-3.2c0.5-1,1.1-1.9,1.8-2.8
					c0.7-0.8,1.6-1.5,2.5-2.1c0.9-0.5,1.9-0.9,3-1.2c1-0.2,2.1-0.3,3.1-0.2c-4.1,0.4-7.7,3.2-9,6.8c-1.4,3.6-0.4,7.8,2.3,10.4
					c2.6,2.7,6.9,3.6,10.4,2.3C38.6,39.1,41.4,35.5,41.8,31.4z"/>
			</g>
		</g>
	</g>
</g>
</svg>
