<?xml version="1.0" encoding="utf-8"?>
<!-- Generator: Adobe Illustrator 22.0.1, SVG Export Plug-In . SVG Version: 6.00 Build 0)  -->
<svg version="1.1" xmlns="http://www.w3.org/2000/svg" xmlns:xlink="http://www.w3.org/1999/xlink" x="0px" y="0px"
	 viewBox="0 0 81.9 81.9" style="enable-background:new 0 0 81.9 81.9;" xml:space="preserve">
<g id="bg" style="display:none;">
	<rect x="-1261" y="-22" style="display:inline;fill:#84C447;" width="1366" height="768"/>
</g>
<g id="grass">
</g>
<g id="post-corn-tl">
</g>
<g id="post-corn-bl_1_">
</g>
<g id="post-corn-br">
</g>
<g id="post-corn-tr">
	<g>
		<g>
			<path style="fill:#68452B;" d="M28,77.9c0.1-0.1,0.4-0.2,0.8-0.4c0.2-0.1,0.4-0.2,0.6-0.3c6.9-3.2,34.3-16.5,41.4-25.2
				c0,0,0,0,0.1-0.1c11.3-11.3,11.3-29.7,0-41s-29.7-11.3-41,0c-1.8,1.8-3.3,3.8-4.6,6C16.8,29.1,6.1,49.6,5,51.8
				C0.9,58.8,1.8,68,7.9,74C13.3,79.4,21.3,80.8,28,77.9z"/>
			<path d="M20.8,81.9c-5.4,0-10.7-2.1-14.7-6.1c-6.7-6.7-8-17-3.3-25.2c1.3-2.5,11.9-22.7,20.4-35c1.4-2.3,3-4.5,4.9-6.4
				C34,3.3,42,0,50.4,0c8.4,0,16.3,3.3,22.3,9.2c6,5.9,9.2,13.9,9.2,22.3c0,8.4-3.3,16.3-9.2,22.3c-7.4,9-34,21.9-42.1,25.7
				c-0.2,0.1-0.3,0.2-0.5,0.2L29,80.2C26.3,81.4,23.6,81.9,20.8,81.9z M50.4,5c-6.8,0-13.6,2.6-18.7,7.7c-1.6,1.6-3,3.5-4.2,5.4
				l-0.1,0.2c-8.4,12.1-19,32.3-20.1,34.6L7.1,53c-3.6,6.2-2.6,14.1,2.5,19.2c4.6,4.6,11.4,5.9,17.4,3.4l1-0.5
				c0.1,0,0.2-0.1,0.3-0.1l0.1-0.1c16.1-7.6,35.2-18,40.5-24.5l0.3-0.3c10.3-10.3,10.3-27.1,0-37.4C63.9,7.6,57.2,5,50.4,5z"/>
		</g>
		<g>
			<path style="fill:#68452B;" d="M4.9,52c0,0,16-31,25-41c0,0,50.1,29.7,41,41c-8,10-43,26-43,26L4.9,52z"/>
		</g>
		<g>
			<circle style="fill:#68452B;" cx="20.9" cy="61" r="18.4"/>
		</g>
		<g>
			<circle style="fill:#68452B;" cx="50.4" cy="31.5" r="29"/>
		</g>
		<g>
			<circle style="fill:#AF8953;" cx="50.4" cy="31.5" r="26.5"/>
		</g>
		<g>
			<path style="fill:#68452B;" d="M29.4,31.5c-0.2-2.8,0.2-5.6,1.1-8.2c1-2.6,2.5-5.1,4.5-7.2c2-2.1,4.4-3.7,7-4.9
				c2.6-1.1,5.5-1.7,8.4-1.7c2.9,0,5.8,0.6,8.4,1.7c2.6,1.1,5,2.8,7,4.9c2,2.1,3.5,4.5,4.5,7.2c0.9,2.7,1.4,5.5,1.1,8.2
				C71,26,68.5,20.8,64.7,17.2c-3.8-3.6-9-5.7-14.3-5.7c-5.2,0-10.5,2.1-14.3,5.7C32.2,20.8,29.8,26,29.4,31.5z"/>
		</g>
		<g>
			<path style="fill:#68452B;" d="M65.9,31.5c0.4,4.1-1.1,8.4-4,11.5c-1.4,1.6-3.3,2.8-5.2,3.7c-2,0.9-4.1,1.3-6.3,1.3
				c-2.2,0-4.3-0.5-6.3-1.3c-2-0.9-3.8-2.1-5.2-3.7c-2.9-3.1-4.4-7.4-4-11.5c0.4,4.1,2.3,7.8,5.1,10.4c2.8,2.6,6.6,4.1,10.4,4.1
				c3.8,0,7.6-1.5,10.4-4.1C63.6,39.3,65.5,35.6,65.9,31.5z"/>
		</g>
		<g>
			<path style="fill:#68452B;" d="M50.4,42c-1,0.1-2.1,0-3.1-0.2c-1-0.2-2-0.6-3-1.2c-0.9-0.6-1.8-1.3-2.5-2.1
				c-0.7-0.8-1.3-1.8-1.8-2.8c-0.5-1-0.8-2.1-0.9-3.2c-0.1-1.1-0.1-2.2,0.1-3.3c0.2-1.1,0.6-2.2,1.1-3.2c0.5-1,1.2-1.9,2-2.7
				c0.8-0.8,1.7-1.5,2.7-2c1-0.5,2.1-0.9,3.2-1.1c1.1-0.2,2.2-0.2,3.3-0.1c1.1,0.1,2.2,0.4,3.2,0.9c1,0.5,1.9,1.1,2.8,1.8
				c0.8,0.7,1.5,1.6,2.1,2.5c0.5,0.9,0.9,1.9,1.2,3c0.2,1,0.3,2.1,0.2,3.1c-0.4-4.1-3.2-7.7-6.8-9c-3.6-1.4-7.8-0.4-10.4,2.3
				c-2.7,2.6-3.6,6.9-2.3,10.4C42.7,38.8,46.2,41.6,50.4,42z"/>
		</g>
	</g>
</g>
<g id="bars-top" style="display:none;">
	<g style="display:inline;">
		<g>
			<g>
				<polyline style="fill:#68452B;" points="15.5,31.5 -550.5,31.5 -550.5,42.5 19.5,42.5 				"/>
			</g>
			<g>
				<polygon points="15.5,31.5 -55.3,32.3 -126,33 -267.5,33 -550.5,33 -549,31.5 -549,42.5 -550.5,41 -265.5,41 -123,41 19.5,42.5 
					-123,44 -265.5,44 -550.5,44 -552,44 -552,42.5 -552,31.5 -552,30 -550.5,30 -267.5,30 -126,30 -55.3,30.7 				"/>
			</g>
		</g>
		<g>
			<g>
				<polyline style="fill:#68452B;" points="9.5,48.5 -556.5,48.5 -556.5,59.5 13.5,59.5 				"/>
			</g>
			<g>
				<polygon points="9.5,48.5 -61.3,49.3 -132,50 -273.5,50 -556.5,50 -555,48.5 -555,59.5 -556.5,58 -271.5,58 -129,58 13.5,59.5 
					-129,61 -271.5,61 -556.5,61 -558,61 -558,59.5 -558,48.5 -558,47 -556.5,47 -273.5,47 -132,47 -61.3,47.7 				"/>
			</g>
		</g>
	</g>
</g>
<g id="bars-right" style="display:none;">
	<g style="display:inline;">
		<g>
			<g>
				<g>
					<polyline style="fill:#68452B;" points="55,63.5 55,334.5 44,334.5 44,68.5 					"/>
				</g>
				<g>
					<path d="M55,63.5l0.4,16.9l0.4,16.9l0.7,33.9l0,67.7v135.5v1.5H55H44h-1.5v-1.5v-133l0-66.5c0.5-22.2,0.9-44.3,1.5-66.5
						c0.6,22.2,1,44.3,1.5,66.5l0,66.5v133L44,333h11l-1.5,1.5V199l0-67.7l0.7-33.9l0.4-16.9L55,63.5z"/>
				</g>
			</g>
			<g>
				<g>
					<polyline style="fill:#68452B;" points="38,71.5 38,340.5 27,340.5 27,76.5 					"/>
				</g>
				<g>
					<path d="M38,71.5l0.4,16.8l0.4,16.8l0.7,33.6l0,67.2v134.5v1.5H38H27h-1.5v-1.5v-132l0-66c0.5-22,0.9-44,1.5-66
						c0.6,22,1,44,1.5,66l0,66v132L27,339h11l-1.5,1.5V206l0-67.2l0.7-33.6l0.4-16.8L38,71.5z"/>
				</g>
			</g>
		</g>
	</g>
</g>
<g id="bars-left" style="display:none;">
</g>
<g id="bars-bottom" style="display:none;">
</g>
<g id="post-mid-top">
</g>
<g id="post-mid-bottom">
</g>
<g id="post-mid-right">
</g>
<g id="post-mid-left">
</g>
</svg>
