<?xml version="1.0" encoding="utf-8"?>
<!-- Generator: Adobe Illustrator 22.0.1, SVG Export Plug-In . SVG Version: 6.00 Build 0)  -->
<svg version="1.1" xmlns="http://www.w3.org/2000/svg" xmlns:xlink="http://www.w3.org/1999/xlink" x="0px" y="0px"
	 viewBox="0 0 81.9 81.9" style="enable-background:new 0 0 81.9 81.9;" xml:space="preserve">
<g id="bg" style="display:none;">
	<rect x="-22" y="-22" style="display:inline;fill:#84C447;" width="1366" height="768"/>
</g>
<g id="grass">
</g>
<g id="post-corn-tl">
	<g>
		<path style="fill:#68452B;" d="M77.9,53.9c-0.1-0.1-0.2-0.4-0.4-0.8c-0.1-0.2-0.2-0.4-0.3-0.6C74,45.6,60.8,18.1,52.1,11.1
			c0,0,0,0-0.1-0.1C40.7-0.3,22.3-0.3,11,11s-11.3,29.7,0,41c1.8,1.8,3.8,3.3,6,4.6c12.2,8.5,32.7,19.2,34.8,20.3
			C58.8,81,68,80,74,74C79.4,68.6,80.8,60.5,77.9,53.9z"/>
		<path d="M61,81.9c-3.6,0-7.2-0.9-10.4-2.8c-2.5-1.3-22.7-11.9-35-20.4c-2.3-1.4-4.5-3-6.4-4.9C3.3,47.8,0,39.9,0,31.5
			S3.3,15.2,9.2,9.2C15.2,3.3,23.1,0,31.5,0c8.4,0,16.3,3.3,22.3,9.2c9,7.4,21.9,34,25.7,42.1c0.1,0.2,0.2,0.3,0.2,0.5l0.5,1.1
			c3.3,7.9,1.6,16.9-4.5,22.9C71.8,79.8,66.4,81.9,61,81.9z M31.5,5c-6.8,0-13.6,2.6-18.8,7.8c-10.3,10.3-10.3,27.1,0,37.5
			c1.6,1.6,3.5,3,5.4,4.2l0.2,0.1c12.1,8.4,32.3,19,34.6,20.1l0.1,0.1c6.2,3.6,14.1,2.6,19.2-2.5c4.6-4.6,5.9-11.4,3.4-17.4l-0.5-1
			c0-0.1-0.1-0.2-0.1-0.3L75,53.5C67.4,37.4,57,18.3,50.5,13l-0.3-0.3C45.1,7.6,38.3,5,31.5,5z"/>
	</g>
	<g>
		<g>
			<path style="fill:#68452B;" d="M52,77c0,0-31-16-41-25c0,0,29.7-50.1,41-41c10,8,26,43,26,43L52,77z"/>
		</g>
		<g>
			<circle style="fill:#68452B;" cx="61" cy="61" r="18.4"/>
		</g>
		<g>
			<circle style="fill:#68452B;" cx="31.5" cy="31.5" r="29"/>
		</g>
		<g>
			<circle style="fill:#AF8953;" cx="31.5" cy="31.5" r="26.5"/>
		</g>
		<g>
			<path style="fill:#68452B;" d="M31.5,52.5c-2.8,0.2-5.6-0.2-8.2-1.1c-2.6-1-5.1-2.5-7.2-4.5c-2.1-2-3.7-4.4-4.9-7
				c-1.1-2.6-1.7-5.5-1.7-8.4c0-2.9,0.6-5.8,1.7-8.4c1.1-2.6,2.8-5,4.9-7c2.1-2,4.5-3.5,7.2-4.5c2.7-0.9,5.5-1.4,8.2-1.1
				c-5.5,0.4-10.7,2.9-14.3,6.7c-3.6,3.8-5.7,9-5.7,14.3c0,5.2,2.1,10.5,5.7,14.3C20.8,49.6,26,52.1,31.5,52.5z"/>
		</g>
		<g>
			<path style="fill:#68452B;" d="M31.5,16c4.1-0.4,8.4,1.1,11.5,4c1.6,1.4,2.8,3.3,3.7,5.2c0.9,2,1.3,4.1,1.3,6.3
				c0,2.2-0.5,4.3-1.3,6.3c-0.9,2-2.1,3.8-3.7,5.2c-3.1,2.9-7.4,4.4-11.5,4c4.1-0.4,7.8-2.3,10.4-5.1c2.6-2.8,4.1-6.6,4.1-10.4
				c0-3.8-1.5-7.6-4.1-10.4C39.3,18.2,35.6,16.4,31.5,16z"/>
		</g>
		<g>
			<path style="fill:#68452B;" d="M42,31.5c0.1,1,0,2.1-0.2,3.1c-0.2,1-0.6,2-1.2,3c-0.6,0.9-1.3,1.8-2.1,2.5
				c-0.8,0.7-1.8,1.3-2.8,1.8c-1,0.5-2.1,0.8-3.2,0.9c-1.1,0.1-2.2,0.1-3.3-0.1c-1.1-0.2-2.2-0.6-3.2-1.1c-1-0.5-1.9-1.2-2.7-2
				c-0.8-0.8-1.5-1.7-2-2.7c-0.5-1-0.9-2.1-1.1-3.2c-0.2-1.1-0.2-2.2-0.1-3.3c0.1-1.1,0.4-2.2,0.9-3.2c0.5-1,1.1-1.9,1.8-2.8
				c0.7-0.8,1.6-1.5,2.5-2.1c0.9-0.5,1.9-0.9,3-1.2c1-0.2,2.1-0.3,3.1-0.2c-4.1,0.4-7.7,3.2-9,6.8c-1.4,3.6-0.4,7.8,2.3,10.4
				c2.6,2.7,6.9,3.6,10.4,2.3C38.8,39.2,41.6,35.6,42,31.5z"/>
		</g>
	</g>
</g>
<g id="post-corn-bl_1_">
</g>
<g id="post-corn-br">
</g>
<g id="post-corn-tr">
</g>
<g id="bars-top" style="display:none;">
	<g style="display:inline;">
		<g>
			<g>
				<polyline style="fill:#68452B;" points="67.5,31.5 633.5,31.5 633.5,42.5 63.5,42.5 				"/>
			</g>
			<g>
				<polygon points="67.5,31.5 138.2,30.7 209,30 350.5,30 633.5,30 635,30 635,31.5 635,42.5 635,44 633.5,44 348.5,44 206,44 
					63.5,42.5 206,41 348.5,41 633.5,41 632,42.5 632,31.5 633.5,33 350.5,33 209,33 138.2,32.3 				"/>
			</g>
		</g>
		<g>
			<g>
				<polyline style="fill:#68452B;" points="73.5,48.5 639.5,48.5 639.5,59.5 69.5,59.5 				"/>
			</g>
			<g>
				<polygon points="73.5,48.5 144.2,47.7 215,47 356.5,47 639.5,47 641,47 641,48.5 641,59.5 641,61 639.5,61 354.5,61 212,61 
					69.5,59.5 212,58 354.5,58 639.5,58 638,59.5 638,48.5 639.5,50 356.5,50 215,50 144.2,49.3 				"/>
			</g>
		</g>
	</g>
</g>
<g id="bars-right" style="display:none;">
</g>
<g id="bars-left" style="display:none;">
	<g style="display:inline;">
		<g>
			<g>
				<g>
					<polyline style="fill:#68452B;" points="30,63.5 30,334.5 41,334.5 41,68.5 					"/>
				</g>
				<g>
					<path d="M30,63.5l0.4,16.9l0.4,16.9l0.7,33.9l0,67.7v135.5L30,333h11l-1.5,1.5v-133l0-66.5c0.5-22.2,0.9-44.3,1.5-66.5
						c0.6,22.2,1,44.3,1.5,66.5l0,66.5v133v1.5H41H30h-1.5v-1.5V199l0-67.7l0.7-33.9l0.4-16.9L30,63.5z"/>
				</g>
			</g>
			<g>
				<g>
					<polyline style="fill:#68452B;" points="47,71.5 47,340.5 58,340.5 58,76.5 					"/>
				</g>
				<g>
					<path d="M47,71.5l0.4,16.8l0.4,16.8l0.7,33.6l0,67.2v134.5L47,339h11l-1.5,1.5v-132l0-66c0.5-22,0.9-44,1.5-66
						c0.6,22,1,44,1.5,66l0,66v132v1.5H58H47h-1.5v-1.5V206l0-67.2l0.7-33.6l0.4-16.8L47,71.5z"/>
				</g>
			</g>
		</g>
	</g>
</g>
<g id="bars-bottom" style="display:none;">
</g>
<g id="post-mid-top">
</g>
<g id="post-mid-bottom">
</g>
<g id="post-mid-right">
</g>
<g id="post-mid-left">
</g>
</svg>
