<?xml version="1.0" encoding="utf-8"?>
<!-- Generator: Adobe Illustrator 22.0.1, SVG Export Plug-In . SVG Version: 6.00 Build 0)  -->
<svg version="1.1" xmlns="http://www.w3.org/2000/svg" xmlns:xlink="http://www.w3.org/1999/xlink" x="0px" y="0px"
	 viewBox="0 0 63 81.9" style="enable-background:new 0 0 63 81.9;" xml:space="preserve">
<g id="bg" style="display:none;">
	<rect x="-651.4" y="-22.5" style="display:inline;fill:#84C447;" width="1366" height="768"/>
</g>
<g id="grass">
</g>
<g id="post-corn-tl">
</g>
<g id="post-corn-bl_1_">
</g>
<g id="post-corn-br">
</g>
<g id="post-corn-tr">
</g>
<g id="bars-top" style="display:none;">
	<g style="display:inline;">
		<g>
			<g>
				<polyline style="fill:#68452B;" points="-561.9,31 4.1,31 4.1,42 -565.9,42 				"/>
			</g>
			<g>
				<polygon points="-561.9,31 -491.2,30.2 -420.4,29.5 -278.9,29.5 4.1,29.5 5.6,29.5 5.6,31 5.6,42 5.6,43.5 4.1,43.5 
					-280.9,43.5 -423.4,43.5 -565.9,42 -423.4,40.5 -280.9,40.5 4.1,40.5 2.6,42 2.6,31 4.1,32.5 -278.9,32.5 -420.4,32.5 
					-491.2,31.8 				"/>
			</g>
		</g>
		<g>
			<g>
				<polyline style="fill:#68452B;" points="-555.9,48 10.1,48 10.1,59 -559.9,59 				"/>
			</g>
			<g>
				<polygon points="-555.9,48 -485.2,47.2 -414.4,46.5 -272.9,46.5 10.1,46.5 11.6,46.5 11.6,48 11.6,59 11.6,60.5 10.1,60.5 
					-274.9,60.5 -417.4,60.5 -559.9,59 -417.4,57.5 -274.9,57.5 10.1,57.5 8.6,59 8.6,48 10.1,49.5 -272.9,49.5 -414.4,49.5 
					-485.2,48.8 				"/>
			</g>
		</g>
		<g>
			<g>
				<polyline style="fill:#68452B;" points="625.1,31 59.1,31 59.1,42 629.1,42 				"/>
			</g>
			<g>
				<polygon points="625.1,31 554.3,31.8 483.6,32.5 342.1,32.5 59.1,32.5 60.6,31 60.6,42 59.1,40.5 344.1,40.5 486.6,40.5 
					629.1,42 486.6,43.5 344.1,43.5 59.1,43.5 57.6,43.5 57.6,42 57.6,31 57.6,29.5 59.1,29.5 342.1,29.5 483.6,29.5 554.3,30.2 
									"/>
			</g>
		</g>
		<g>
			<g>
				<polyline style="fill:#68452B;" points="619.1,48 53.1,48 53.1,59 623.1,59 				"/>
			</g>
			<g>
				<polygon points="619.1,48 548.3,48.8 477.6,49.5 336.1,49.5 53.1,49.5 54.6,48 54.6,59 53.1,57.5 338.1,57.5 480.6,57.5 
					623.1,59 480.6,60.5 338.1,60.5 53.1,60.5 51.6,60.5 51.6,59 51.6,48 51.6,46.5 53.1,46.5 336.1,46.5 477.6,46.5 548.3,47.2 
									"/>
			</g>
		</g>
	</g>
</g>
<g id="bars-right" style="display:none;">
</g>
<g id="bars-left" style="display:none;">
</g>
<g id="bars-bottom" style="display:none;">
</g>
<g id="post-mid-top">
	<g>
		<g>
			<path style="fill:#68452B;" d="M19,74c7.2,7.2,18.8,7.2,26,0c1.3-1.3,2.3-2.7,3.1-4.2c1.1-1.7,9.1-14.4,11.7-32.3
				c2-9.3-0.6-19.3-7.9-26.6C40.7-0.3,22.3-0.3,11,11c-6.2,6.2-9,14.4-8.4,22.5C3.7,55,15.1,69,15.9,69.9C16.8,71.4,17.8,72.8,19,74
				z"/>
			<path d="M32,81.9c-5.6,0-10.8-2.2-14.8-6.1c-1.3-1.3-2.4-2.8-3.3-4.4C12,69.1,1.2,55.1,0.1,33.6c-0.6-9,2.7-17.9,9.1-24.4
				C15.2,3.3,23.1,0,31.5,0c8.4,0,16.3,3.3,22.3,9.2c7.5,7.5,10.7,18.3,8.5,28.8c-2.7,18.2-10.9,31.3-12,33.1
				c-1,1.7-2.1,3.3-3.5,4.7C42.8,79.7,37.6,81.9,32,81.9z M31.5,5c-6.8,0-13.6,2.6-18.7,7.7c-5.4,5.4-8.2,12.9-7.7,20.5
				c1.1,20.9,12.3,34.5,12.8,35l0.3,0.4c0.7,1.3,1.6,2.5,2.6,3.5c6.2,6.2,16.3,6.2,22.5,0c1.1-1.1,2-2.3,2.7-3.6l0.1-0.2
				c0.9-1.4,8.8-13.7,11.3-31.2l0-0.2c1.9-8.8-0.8-17.9-7.2-24.3C45.1,7.6,38.3,5,31.5,5z"/>
		</g>
		<g>
			<g>
				<path style="fill:#68452B;" d="M60.5,31.5C59,54,48,70,48,70H16c0,0-13-15-13.5-38.5C5,29,61,31,60.5,31.5z"/>
			</g>
			<g>
				<g>
					<circle style="fill:#68452B;" cx="32" cy="61" r="18.4"/>
				</g>
				<g>
					<circle style="fill:#68452B;" cx="31.5" cy="31.5" r="29"/>
				</g>
				<g>
					<circle style="fill:#AF8953;" cx="31.5" cy="31.5" r="26.5"/>
				</g>
				<g>
					<path style="fill:#68452B;" d="M10.5,31.5c-0.2-2.8,0.2-5.6,1.1-8.2c1-2.6,2.5-5.1,4.5-7.2c2-2.1,4.4-3.7,7-4.9
						c2.6-1.1,5.5-1.7,8.4-1.7c2.9,0,5.8,0.6,8.4,1.7c2.6,1.1,5,2.8,7,4.9c2,2.1,3.5,4.5,4.5,7.2c0.9,2.7,1.4,5.5,1.1,8.2
						c-0.4-5.5-2.9-10.7-6.7-14.3c-3.8-3.6-9-5.7-14.3-5.7c-5.2,0-10.5,2.1-14.3,5.7C13.3,20.8,10.9,26,10.5,31.5z"/>
				</g>
				<g>
					<path style="fill:#68452B;" d="M47,31.5c0.4,4.1-1.1,8.4-4,11.5c-1.4,1.6-3.3,2.8-5.2,3.7c-2,0.9-4.1,1.3-6.3,1.3
						c-2.2,0-4.3-0.5-6.3-1.3c-2-0.9-3.8-2.1-5.2-3.7c-2.9-3.1-4.4-7.4-4-11.5c0.4,4.1,2.3,7.8,5.1,10.4c2.8,2.6,6.6,4.1,10.4,4.1
						c3.8,0,7.6-1.5,10.4-4.1C44.7,39.3,46.6,35.6,47,31.5z"/>
				</g>
				<g>
					<path style="fill:#68452B;" d="M31.5,42c-1,0.1-2.1,0-3.1-0.2c-1-0.2-2-0.6-3-1.2c-0.9-0.6-1.8-1.3-2.5-2.1
						c-0.7-0.8-1.3-1.8-1.8-2.8c-0.5-1-0.8-2.1-0.9-3.2c-0.1-1.1-0.1-2.2,0.1-3.3c0.2-1.1,0.6-2.2,1.1-3.2c0.5-1,1.2-1.9,2-2.7
						c0.8-0.8,1.7-1.5,2.7-2c1-0.5,2.1-0.9,3.2-1.1c1.1-0.2,2.2-0.2,3.3-0.1c1.1,0.1,2.2,0.4,3.2,0.9c1,0.5,1.9,1.1,2.8,1.8
						c0.8,0.7,1.5,1.6,2.1,2.5c0.5,0.9,0.9,1.9,1.2,3c0.2,1,0.3,2.1,0.2,3.1c-0.4-4.1-3.2-7.7-6.8-9c-3.6-1.4-7.8-0.4-10.4,2.3
						c-2.7,2.6-3.6,6.9-2.3,10.4C23.8,38.8,27.3,41.6,31.5,42z"/>
				</g>
			</g>
		</g>
	</g>
</g>
<g id="post-mid-bottom">
</g>
<g id="post-mid-right">
</g>
<g id="post-mid-left">
</g>
</svg>
