<?xml version="1.0" encoding="utf-8"?>
<!-- Generator: Adobe Illustrator 22.0.1, SVG Export Plug-In . SVG Version: 6.00 Build 0)  -->
<svg version="1.1" xmlns="http://www.w3.org/2000/svg" xmlns:xlink="http://www.w3.org/1999/xlink" x="0px" y="0px"
	 viewBox="0 0 63.6 82.4" style="enable-background:new 0 0 63.6 82.4;" xml:space="preserve">
<g id="bg" style="display:none;">
	<rect x="-651.2" y="-664.1" style="display:inline;fill:#84C447;" width="1366" height="768"/>
</g>
<g id="grass">
</g>
<g id="post-corn-tl">
</g>
<g id="post-corn-bl_1_">
</g>
<g id="post-corn-br">
</g>
<g id="post-corn-tr">
</g>
<g id="bars-top" style="display:none;">
</g>
<g id="bars-right" style="display:none;">
</g>
<g id="bars-left" style="display:none;">
</g>
<g id="bars-bottom" style="display:none;">
	<g style="display:inline;">
		<g>
			<g>
				<polyline style="fill:#68452B;" points="-561.7,48.4 4.3,48.4 4.3,37.4 -565.7,37.4 				"/>
			</g>
			<g>
				<polygon points="-561.7,48.4 -490.9,47.6 -420.2,46.9 -278.7,46.9 4.3,46.9 2.8,48.4 2.8,37.4 4.3,38.9 -280.7,38.9 
					-423.2,38.9 -565.7,37.4 -423.2,35.9 -280.7,35.9 4.3,35.9 5.8,35.9 5.8,37.4 5.8,48.4 5.8,49.9 4.3,49.9 -278.7,49.9 
					-420.2,49.9 -490.9,49.2 				"/>
			</g>
		</g>
		<g>
			<g>
				<polyline style="fill:#68452B;" points="-555.7,31.4 10.3,31.4 10.3,20.4 -559.7,20.4 				"/>
			</g>
			<g>
				<polygon points="-555.7,31.4 -484.9,30.6 -414.2,29.9 -272.7,29.9 10.3,29.9 8.8,31.4 8.8,20.4 10.3,21.9 -274.7,21.9 
					-417.2,21.9 -559.7,20.4 -417.2,18.9 -274.7,18.9 10.3,18.9 11.8,18.9 11.8,20.4 11.8,31.4 11.8,32.9 10.3,32.9 -272.7,32.9 
					-414.2,32.9 -484.9,32.2 				"/>
			</g>
		</g>
		<g>
			<g>
				<polyline style="fill:#68452B;" points="625.3,48.4 59.3,48.4 59.3,37.4 629.3,37.4 				"/>
			</g>
			<g>
				<polygon points="625.3,48.4 554.6,49.2 483.8,49.9 342.3,49.9 59.3,49.9 57.8,49.9 57.8,48.4 57.8,37.4 57.8,35.9 59.3,35.9 
					344.3,35.9 486.8,35.9 629.3,37.4 486.8,38.9 344.3,38.9 59.3,38.9 60.8,37.4 60.8,48.4 59.3,46.9 342.3,46.9 483.8,46.9 
					554.6,47.6 				"/>
			</g>
		</g>
		<g>
			<g>
				<polyline style="fill:#68452B;" points="619.3,31.4 53.3,31.4 53.3,20.4 623.3,20.4 				"/>
			</g>
			<g>
				<polygon points="619.3,31.4 548.6,32.2 477.8,32.9 336.3,32.9 53.3,32.9 51.8,32.9 51.8,31.4 51.8,20.4 51.8,18.9 53.3,18.9 
					338.3,18.9 480.8,18.9 623.3,20.4 480.8,21.9 338.3,21.9 53.3,21.9 54.8,20.4 54.8,31.4 53.3,29.9 336.3,29.9 477.8,29.9 
					548.6,30.6 				"/>
			</g>
		</g>
	</g>
</g>
<g id="post-mid-top">
</g>
<g id="post-mid-bottom">
	<g>
		<path style="fill:#68452B;" d="M44.3,7.4c-7.2-7.2-18.8-7.2-26,0c-1.3,1.3-2.3,2.7-3.1,4.2C14,13.3,6,25.9,3.4,43.8
			c-2,9.3,0.6,19.3,7.9,26.6c11.3,11.3,29.7,11.3,41,0c6.2-6.2,9-14.4,8.4-22.5c-1.1-21.6-12.6-35.5-13.4-36.5
			C46.5,10,45.5,8.6,44.3,7.4z"/>
		<path d="M31.8,81.4c-8.4,0-16.3-3.3-22.3-9.2C1.9,64.6-1.3,53.9,0.9,43.4c2.6-17.9,10.4-30.5,12-33.1c1-1.7,2.1-3.3,3.5-4.7
			c8.1-8.1,21.4-8.1,29.5,0l0,0c1.3,1.3,2.4,2.8,3.3,4.4c1.9,2.3,12.7,16.3,13.8,37.8c0.6,9-2.7,17.9-9.1,24.4
			C48.1,78.1,40.2,81.4,31.8,81.4z M31.3,4.5c-4.1,0-8.1,1.5-11.2,4.6c-1.1,1.1-2,2.3-2.7,3.6L17.2,13c-0.9,1.4-8.8,13.8-11.3,31.2
			l0,0.2C4,53.2,6.6,62.3,13,68.6C23.3,79,40.2,79,50.5,68.6c5.4-5.4,8.2-12.9,7.7-20.5c-1.1-20.9-12.3-34.5-12.8-35l-0.3-0.4
			c-0.7-1.3-1.6-2.5-2.6-3.5C39.4,6.1,35.3,4.5,31.3,4.5z"/>
	</g>
	<g>
		<g>
			<path style="fill:#68452B;" d="M2.8,49.9c1.5-22.5,12.5-38.5,12.5-38.5h32c0,0,13,15,13.5,38.5C58.3,52.4,2.3,50.4,2.8,49.9z"/>
		</g>
		<g>
			<g>
				<circle style="fill:#68452B;" cx="31.3" cy="20.4" r="18.4"/>
			</g>
			<g>
				<circle style="fill:#68452B;" cx="31.8" cy="49.9" r="29"/>
			</g>
			<g>
				<circle style="fill:#AF8953;" cx="31.8" cy="49.9" r="26.5"/>
			</g>
			<g>
				<path style="fill:#68452B;" d="M52.8,49.9c0.2,2.8-0.2,5.6-1.1,8.2c-1,2.6-2.5,5.1-4.5,7.2c-2,2.1-4.4,3.7-7,4.9
					c-2.6,1.1-5.5,1.7-8.4,1.7c-2.9,0-5.8-0.6-8.4-1.7c-2.6-1.1-5-2.8-7-4.9c-2-2.1-3.5-4.5-4.5-7.2c-0.9-2.7-1.4-5.5-1.1-8.2
					c0.4,5.5,2.9,10.7,6.7,14.3c3.8,3.6,9,5.7,14.3,5.7c5.2,0,10.5-2.1,14.3-5.7C49.9,60.5,52.4,55.4,52.8,49.9z"/>
			</g>
			<g>
				<path style="fill:#68452B;" d="M16.3,49.9c-0.4-4.1,1.1-8.4,4-11.5c1.4-1.6,3.3-2.8,5.2-3.7c2-0.9,4.1-1.3,6.3-1.3
					c2.2,0,4.3,0.5,6.3,1.3c2,0.9,3.8,2.1,5.2,3.7c2.9,3.1,4.4,7.4,4,11.5c-0.4-4.1-2.3-7.8-5.1-10.4c-2.8-2.6-6.6-4.1-10.4-4.1
					c-3.8,0-7.6,1.5-10.4,4.1C18.5,42.1,16.7,45.8,16.3,49.9z"/>
			</g>
			<g>
				<path style="fill:#68452B;" d="M31.8,39.4c1-0.1,2.1,0,3.1,0.2c1,0.2,2,0.6,3,1.2c0.9,0.6,1.8,1.3,2.5,2.1
					c0.7,0.8,1.3,1.8,1.8,2.8c0.5,1,0.8,2.1,0.9,3.2c0.1,1.1,0.1,2.2-0.1,3.3c-0.2,1.1-0.6,2.2-1.1,3.2c-0.5,1-1.2,1.9-2,2.7
					c-0.8,0.8-1.7,1.5-2.7,2c-1,0.5-2.1,0.9-3.2,1.1c-1.1,0.2-2.2,0.2-3.3,0.1c-1.1-0.1-2.2-0.4-3.2-0.9c-1-0.5-1.9-1.1-2.8-1.8
					c-0.8-0.7-1.5-1.6-2.1-2.5c-0.5-0.9-0.9-1.9-1.2-3c-0.2-1-0.3-2.1-0.2-3.1c0.4,4.1,3.2,7.7,6.8,9c3.6,1.4,7.8,0.4,10.4-2.3
					c2.7-2.6,3.6-6.9,2.3-10.4C39.4,42.6,35.9,39.8,31.8,39.4z"/>
			</g>
		</g>
	</g>
</g>
<g id="post-mid-right">
</g>
<g id="post-mid-left">
</g>
</svg>
