<?xml version="1.0" encoding="utf-8"?>
<!-- Generator: Adobe Illustrator 22.0.1, SVG Export Plug-In . SVG Version: 6.00 Build 0)  -->
<svg version="1.1" xmlns="http://www.w3.org/2000/svg" xmlns:xlink="http://www.w3.org/1999/xlink" x="0px" y="0px"
	 viewBox="0 0 81.9 81.9" style="enable-background:new 0 0 81.9 81.9;" xml:space="preserve">
<g id="bg" style="display:none;">
	<rect x="-22.5" y="-663.6" style="display:inline;fill:#84C447;" width="1366" height="768"/>
</g>
<g id="grass">
</g>
<g id="post-corn-tl">
</g>
<g id="post-corn-bl_1_">
	<g>
		<path style="fill:#68452B;" d="M53.9,4c-0.1,0.1-0.4,0.2-0.8,0.4c-0.2,0.1-0.4,0.2-0.6,0.3c-6.9,3.2-34.3,16.5-41.4,25.2
			c0,0,0,0-0.1,0.1c-11.3,11.3-11.3,29.7,0,41s29.7,11.3,41,0c1.8-1.8,3.3-3.8,4.6-6c8.5-12.2,19.2-32.7,20.3-34.8
			C81,23.1,80,13.9,74,7.9C68.6,2.4,60.5,1.1,53.9,4z"/>
		<path d="M31.5,81.9c-8.4,0-16.3-3.3-22.3-9.2C3.3,66.7,0,58.8,0,50.4C0,42,3.3,34.1,9.2,28.1c7.4-9,34-21.9,42.1-25.7
			c0.2-0.1,0.3-0.2,0.5-0.2l1.1-0.5c7.9-3.3,16.9-1.6,22.9,4.5c6.7,6.7,8,17,3.3,25.2c-1.3,2.5-11.9,22.8-20.4,35
			c-1.4,2.3-3,4.5-4.9,6.4C47.8,78.6,39.9,81.9,31.5,81.9z M54.9,6.2l-1,0.5c-0.1,0-0.2,0.1-0.3,0.1l-0.1,0.1
			c-16.1,7.6-35.2,18-40.5,24.5l-0.3,0.3c-5,5-7.7,11.6-7.7,18.7s2.8,13.7,7.8,18.7c5,5,11.7,7.8,18.7,7.8c7.1,0,13.7-2.8,18.7-7.8
			c1.6-1.6,3-3.5,4.2-5.4l0.1-0.2c8.4-12,19-32.3,20.1-34.6l0.1-0.1c3.6-6.2,2.6-14.1-2.5-19.2C67.7,5.1,60.8,3.7,54.9,6.2z"/>
	</g>
	<g>
		<g>
			<path style="fill:#68452B;" d="M77,29.9c0,0-16,31-25,41c0,0-50.1-29.7-41-41c8-10,43-26,43-26L77,29.9z"/>
		</g>
		<g>
			<circle style="fill:#68452B;" cx="61" cy="20.9" r="18.4"/>
		</g>
		<g>
			<circle style="fill:#68452B;" cx="31.5" cy="50.4" r="29"/>
		</g>
		<g>
			<circle style="fill:#AF8953;" cx="31.5" cy="50.4" r="26.5"/>
		</g>
		<g>
			<path style="fill:#68452B;" d="M52.5,50.4c0.2,2.8-0.2,5.6-1.1,8.2c-1,2.6-2.5,5.1-4.5,7.2c-2,2.1-4.4,3.7-7,4.9
				c-2.6,1.1-5.5,1.7-8.4,1.7c-2.9,0-5.8-0.6-8.4-1.7c-2.6-1.1-5-2.8-7-4.9c-2-2.1-3.5-4.5-4.5-7.2c-0.9-2.7-1.4-5.5-1.1-8.2
				c0.4,5.5,2.9,10.7,6.7,14.3c3.8,3.6,9,5.7,14.3,5.7c5.2,0,10.5-2.1,14.3-5.7C49.6,61.1,52.1,55.9,52.5,50.4z"/>
		</g>
		<g>
			<path style="fill:#68452B;" d="M16,50.4c-0.4-4.1,1.1-8.4,4-11.5c1.4-1.6,3.3-2.8,5.2-3.7c2-0.9,4.1-1.3,6.3-1.3
				c2.2,0,4.3,0.5,6.3,1.3c2,0.9,3.8,2.1,5.2,3.7c2.9,3.1,4.4,7.4,4,11.5c-0.4-4.1-2.3-7.8-5.1-10.4c-2.8-2.6-6.6-4.1-10.4-4.1
				c-3.8,0-7.6,1.5-10.4,4.1C18.2,42.6,16.4,46.3,16,50.4z"/>
		</g>
		<g>
			<path style="fill:#68452B;" d="M31.5,39.9c1-0.1,2.1,0,3.1,0.2c1,0.2,2,0.6,3,1.2c0.9,0.6,1.8,1.3,2.5,2.1
				c0.7,0.8,1.3,1.8,1.8,2.8c0.5,1,0.8,2.1,0.9,3.2c0.1,1.1,0.1,2.2-0.1,3.3c-0.2,1.1-0.6,2.2-1.1,3.2c-0.5,1-1.2,1.9-2,2.7
				c-0.8,0.8-1.7,1.5-2.7,2c-1,0.5-2.1,0.9-3.2,1.1c-1.1,0.2-2.2,0.2-3.3,0.1c-1.1-0.1-2.2-0.4-3.2-0.9c-1-0.5-1.9-1.1-2.8-1.8
				c-0.8-0.7-1.5-1.6-2.1-2.5c-0.5-0.9-0.9-1.9-1.2-3c-0.2-1-0.3-2.1-0.2-3.1c0.4,4.1,3.2,7.7,6.8,9c3.6,1.4,7.8,0.4,10.4-2.3
				c2.7-2.6,3.6-6.9,2.3-10.4C39.2,43.1,35.6,40.3,31.5,39.9z"/>
		</g>
	</g>
</g>
<g id="post-corn-br">
</g>
<g id="post-corn-tr">
</g>
<g id="bars-top" style="display:none;">
</g>
<g id="bars-right" style="display:none;">
</g>
<g id="bars-left" style="display:none;">
	<g style="display:inline;">
		<g>
			<g>
				<g>
					<polyline style="fill:#68452B;" points="29.5,17.9 29.5,-253.1 40.5,-253.1 40.5,12.9 					"/>
				</g>
				<g>
					<path d="M29.5,17.9L29.1,1L28.7-16L28-49.9l0-67.7v-135.5v-1.5h1.5h11H42v1.5v133l0,66.5c-0.5,22.2-0.9,44.3-1.5,66.5
						c-0.6-22.2-1-44.3-1.5-66.5l0-66.5v-133l1.5,1.5h-11l1.5-1.5v135.5l0,67.7L30.3-16L29.9,1L29.5,17.9z"/>
				</g>
			</g>
			<g>
				<g>
					<polyline style="fill:#68452B;" points="46.5,9.9 46.5,-259.1 57.5,-259.1 57.5,4.9 					"/>
				</g>
				<g>
					<path d="M46.5,9.9L46.1-6.9l-0.4-16.8L45-57.4l0-67.2v-134.5v-1.5h1.5h11H59v1.5v132l0,66c-0.5,22-0.9,44-1.5,66
						c-0.6-22-1-44-1.5-66l0-66v-132l1.5,1.5h-11l1.5-1.5v134.5l0,67.2l-0.7,33.6L46.9-6.9L46.5,9.9z"/>
				</g>
			</g>
		</g>
	</g>
</g>
<g id="bars-bottom" style="display:none;">
	<g style="display:inline;">
		<g>
			<g>
				<polyline style="fill:#68452B;" points="67,48.9 633,48.9 633,37.9 63,37.9 				"/>
			</g>
			<g>
				<polygon points="67,48.9 137.7,48.1 208.5,47.4 350,47.4 633,47.4 631.5,48.9 631.5,37.9 633,39.4 348,39.4 205.5,39.4 63,37.9 
					205.5,36.4 348,36.4 633,36.4 634.5,36.4 634.5,37.9 634.5,48.9 634.5,50.4 633,50.4 350,50.4 208.5,50.4 137.7,49.7 				"/>
			</g>
		</g>
		<g>
			<g>
				<polyline style="fill:#68452B;" points="73,31.9 639,31.9 639,20.9 69,20.9 				"/>
			</g>
			<g>
				<polygon points="73,31.9 143.7,31.1 214.5,30.4 356,30.4 639,30.4 637.5,31.9 637.5,20.9 639,22.4 354,22.4 211.5,22.4 69,20.9 
					211.5,19.4 354,19.4 639,19.4 640.5,19.4 640.5,20.9 640.5,31.9 640.5,33.4 639,33.4 356,33.4 214.5,33.4 143.7,32.7 				"/>
			</g>
		</g>
	</g>
</g>
<g id="post-mid-top">
</g>
<g id="post-mid-bottom">
</g>
<g id="post-mid-right">
</g>
<g id="post-mid-left">
</g>
</svg>
